<?xml version="1.0" standalone="no"?>

<svg version="1.0" xmlns="http://www.w3.org/2000/svg"
 width="718.000000pt" height="430.000000pt" viewBox="0 0 718.000000 430.000000"
 preserveAspectRatio="xMidYMid meet">

<g transform="translate(0.000000,430.000000) scale(0.100000,-0.100000)"
fill="#000000" stroke="none">
<path d="M3510 3295 c-8 -10 -11 -33 -8 -65 5 -45 3 -50 -15 -50 -11 0 -40 22
-65 50 -25 28 -52 50 -61 50 -9 0 -33 -18 -54 -39 -41 -41 -65 -50 -198 -72
-62 -10 -85 -10 -133 2 -56 13 -59 16 -61 47 -3 35 -20 62 -40 62 -19 0 -35
-47 -28 -80 10 -53 -60 -110 -137 -110 l-40 0 0 40 c0 79 -83 118 -136 65 -30
-30 -31 -88 -2 -93 12 -2 15 2 11 17 -7 26 29 46 57 31 23 -12 28 -76 9 -112
-16 -29 -70 -48 -139 -48 -65 0 -60 -5 -90 76 -12 34 -56 64 -93 64 -14 0 -39
-12 -56 -26 -39 -32 -43 -92 -10 -125 25 -25 39 -17 16 9 -35 38 -8 92 45 92
42 0 65 -46 54 -105 -9 -45 -57 -91 -131 -126 -71 -34 -121 -38 -130 -10 -18
59 -114 141 -164 141 -32 0 -81 -48 -81 -79 0 -45 85 -105 178 -126 38 -8 42
-30 12 -63 -60 -64 -171 -77 -252 -29 -31 18 -46 22 -42 13 7 -17 68 -61 107
-75 98 -37 236 23 254 110 4 23 12 28 51 34 107 16 207 78 241 150 19 40 24
44 41 35 58 -31 156 9 222 91 25 31 34 36 49 29 37 -20 85 -11 145 28 58 37
60 37 99 24 41 -14 65 -13 228 7 87 11 129 26 174 61 22 17 24 17 68 -27 44
-45 46 -45 92 -39 59 9 67 9 126 0 47 -7 48 -6 93 41 l46 47 21 -21 c39 -36
98 -53 229 -64 98 -8 140 -8 174 1 43 12 45 11 90 -23 62 -48 107 -56 166 -31
11 5 18 1 23 -13 3 -12 36 -43 73 -71 57 -43 73 -50 112 -50 25 0 51 4 59 9
10 7 20 -3 37 -37 35 -70 172 -152 253 -152 23 0 30 -6 36 -27 25 -102 178
-158 285 -103 36 18 103 80 96 88 -2 1 -27 -12 -55 -29 -44 -28 -62 -33 -114
-33 -37 0 -74 7 -92 16 -39 21 -78 63 -73 79 2 6 31 20 64 30 111 34 160 86
138 145 -12 34 -54 59 -86 51 -43 -11 -92 -51 -130 -107 -42 -63 -53 -65 -147
-24 -106 47 -153 116 -129 190 12 35 17 39 49 42 62 5 84 -55 38 -105 -24 -26
-24 -26 -1 -14 66 34 67 120 1 155 -58 31 -130 -3 -144 -71 -4 -15 -8 -34 -11
-40 -4 -16 -118 -18 -161 -3 -54 19 -83 108 -47 144 18 19 16 19 49 6 20 -8
25 -15 20 -30 -3 -11 -2 -20 2 -20 15 0 33 23 33 43 0 27 -54 77 -84 77 -39 0
-76 -39 -83 -87 -4 -32 -10 -43 -28 -47 -35 -9 -86 11 -126 50 -33 32 -36 39
-28 63 14 40 -4 83 -34 79 -18 -2 -23 -11 -27 -48 -5 -41 -8 -46 -40 -57 -48
-16 -91 -16 -185 2 -114 22 -137 31 -175 70 -43 44 -70 45 -104 1 -39 -51 -56
-66 -75 -66 -16 0 -17 7 -13 50 6 62 -8 80 -58 80 -21 0 -43 -7 -50 -15z
m-1529 -375 c37 -38 58 -84 46 -97 -3 -3 -38 2 -77 12 -94 23 -123 62 -80 105
32 32 68 25 111 -20z m3273 24 c20 -20 20 -58 1 -78 -17 -17 -68 -33 -134 -43
l-43 -6 17 34 c29 55 56 90 79 99 33 14 63 11 80 -6z"/>
<path d="M3315 3049 c-348 -26 -711 -121 -977 -255 -473 -238 -702 -589 -624
-954 55 -254 295 -502 650 -670 371 -176 771 -262 1226 -263 306 0 567 37 838
119 324 99 641 291 796 483 63 79 84 115 29 51 -146 -170 -360 -314 -613 -413
-503 -197 -1221 -246 -1790 -121 -317 69 -608 203 -815 375 -287 237 -381 561
-242 839 177 356 655 620 1305 722 131 21 182 23 477 23 297 0 344 -2 470 -23
394 -65 713 -177 950 -334 74 -49 253 -216 283 -263 7 -11 6 -6 -2 10 -8 17
-46 65 -86 107 -267 289 -755 499 -1294 558 -142 15 -441 20 -581 9z"/>
<path d="M3186 2840 c9 -83 5 -90 -47 -79 -37 9 -44 7 -52 -8 -16 -28 -89 -93
-112 -99 -18 -4 -20 -12 -20 -98 0 -92 1 -94 28 -109 15 -9 35 -30 45 -46 l16
-29 86 5 c99 6 161 -7 196 -42 30 -31 30 -50 -1 -80 -49 -50 -185 -23 -201 40
-6 24 -9 25 -83 25 l-78 0 0 -90 0 -90 60 0 c41 0 66 5 78 16 16 14 18 14 29
-6 8 -15 19 -20 38 -18 30 3 31 -3 19 -74 l-6 -38 68 0 67 0 -4 61 -5 61 39
-6 c36 -5 41 -3 59 27 11 17 43 46 70 62 l50 30 -1 88 c-2 88 -2 89 -33 108
-18 11 -39 32 -48 47 -16 28 -16 28 -110 24 -135 -6 -203 23 -203 87 0 31 38
51 98 51 65 0 106 -20 124 -60 13 -29 14 -30 85 -30 l73 0 0 95 0 95 -50 0
c-36 0 -52 -5 -60 -17 -9 -17 -11 -16 -29 5 -15 18 -26 21 -47 16 l-27 -7 7
72 7 71 -66 0 -66 0 7 -60z"/>
<path d="M3864 2883 c4 -16 9 -93 7 -119 -1 -8 -15 -9 -48 -3 -34 7 -49 6 -52
-2 -7 -23 -65 -81 -98 -98 l-34 -17 -2 -92 c-1 -51 1 -92 5 -92 14 0 78 -62
78 -76 0 -11 18 -12 93 -8 63 4 106 1 136 -8 54 -16 86 -55 77 -92 -18 -72
-203 -55 -222 20 -6 23 -10 24 -83 24 l-76 0 0 -89 0 -90 64 -3 c44 -2 65 1
68 10 7 17 32 15 40 -4 4 -12 14 -14 36 -10 l30 6 -7 -60 -7 -60 65 0 66 0 -7
61 -6 60 36 -6 c32 -6 38 -3 73 35 21 23 53 49 72 59 l34 18 1 91 1 91 -34 24
c-19 12 -40 34 -47 47 -12 24 -15 25 -110 22 -114 -4 -178 14 -194 55 -18 49
21 83 96 83 57 0 100 -21 120 -60 15 -29 18 -30 85 -30 l70 0 0 95 0 95 -46 0
c-33 0 -51 -5 -61 -17 -13 -17 -14 -17 -29 4 -13 18 -22 21 -46 16 l-31 -6 6
54 c3 30 7 61 9 69 2 12 -11 16 -65 18 -62 3 -68 1 -63 -15z"/>
<path d="M1372 2755 c-45 -20 -90 -57 -129 -108 l-31 -41 -70 -1 c-87 0 -115
-18 -157 -100 -23 -45 -31 -75 -33 -131 -7 -121 40 -226 180 -403 113 -144
164 -218 220 -321 33 -60 75 -119 115 -160 35 -35 63 -68 63 -73 0 -37 -224
107 -312 200 -78 85 -101 133 -108 237 -6 85 -7 89 -19 61 -21 -49 -10 -160
23 -227 67 -141 292 -318 402 -318 34 0 44 4 49 20 11 33 -2 52 -82 126 -60
55 -89 91 -127 160 -28 49 -79 134 -115 189 -205 316 -227 358 -237 464 -7 66
21 153 60 190 25 23 99 40 109 24 3 -4 -1 -33 -10 -63 -21 -78 -20 -250 1
-325 21 -72 51 -114 111 -155 51 -35 55 -53 23 -88 -23 -26 -8 -21 25 6 31 27
20 57 -42 119 -52 51 -60 65 -72 118 -16 79 -17 184 0 267 18 91 27 102 67 82
17 -8 60 -40 95 -70 35 -30 90 -69 123 -85 56 -29 58 -32 52 -62 -33 -165 -31
-417 5 -534 46 -150 169 -317 338 -458 l70 -58 -30 -38 c-16 -21 -34 -51 -40
-67 -13 -37 -38 -44 -111 -33 -105 18 -190 55 -311 135 -130 87 -152 110 -145
158 l5 32 -18 -23 c-24 -30 -24 -52 1 -101 26 -50 76 -82 214 -138 130 -52
148 -63 135 -82 -13 -23 -11 -93 5 -115 8 -11 65 -45 127 -75 l114 -55 112 0
c108 0 113 -1 113 -21 0 -29 53 -99 97 -128 91 -60 207 -55 377 15 56 23 110
45 121 49 13 6 -1 9 -45 9 -43 1 -103 -9 -175 -29 -178 -48 -295 -38 -330 31
-41 78 15 200 84 182 19 -5 22 -11 17 -34 -4 -22 -2 -27 9 -23 18 7 28 38 20
64 -9 27 -59 52 -90 44 -39 -10 -85 -69 -85 -109 0 -19 -2 -35 -5 -35 -3 0
-32 9 -64 20 -33 11 -111 26 -175 34 -64 8 -127 21 -140 29 -41 27 -67 103
-47 135 7 11 14 11 42 -4 21 -11 59 -19 99 -20 47 -1 75 -7 100 -23 36 -22 80
-37 141 -46 39 -7 40 -8 -64 60 l-62 40 4 75 c2 41 5 77 6 79 2 1 19 -8 37
-22 89 -66 70 -37 -63 94 -237 235 -341 395 -380 585 -23 108 -22 239 1 362
12 60 14 63 36 58 67 -16 76 -15 31 5 l-48 22 8 51 c4 28 8 101 8 161 0 126
-15 171 -70 205 -38 24 -105 26 -153 5z m137 -61 c44 -37 58 -110 53 -276 -2
-45 -5 -58 -18 -58 -20 0 -90 54 -138 108 -21 23 -60 56 -87 74 -27 17 -49 35
-49 40 0 19 87 102 125 119 54 25 78 24 114 -7z"/>
<path d="M5610 2757 c-13 -7 -37 -31 -54 -54 -27 -40 -29 -49 -30 -140 -1 -54
3 -128 7 -165 l8 -66 -53 -21 c-51 -21 -51 -21 -13 -15 82 14 78 17 93 -71 8
-50 11 -129 9 -210 -4 -107 -9 -144 -31 -210 -55 -160 -170 -319 -379 -522
-70 -68 -123 -123 -119 -123 4 1 30 16 57 35 l50 34 7 -71 c9 -85 7 -88 -88
-144 -35 -20 -62 -39 -60 -41 8 -8 132 30 166 50 25 16 52 22 95 23 37 0 73 7
93 18 19 9 40 15 48 12 21 -8 17 -66 -6 -104 -25 -41 -64 -58 -160 -67 -82 -8
-219 -40 -234 -55 -15 -15 39 -23 124 -18 67 4 92 11 182 53 56 27 113 58 125
68 30 27 37 68 19 111 l-15 36 37 18 c20 11 75 34 122 52 98 39 143 65 183
108 34 36 46 97 24 127 -14 19 -15 18 -14 -17 1 -49 -14 -65 -153 -156 -115
-76 -202 -117 -226 -108 -7 3 -14 0 -16 -5 -5 -14 -118 -28 -145 -18 -12 5
-29 24 -37 44 -9 20 -25 48 -36 62 l-20 25 121 116 c201 193 278 325 304 523
13 103 3 322 -20 426 -4 19 3 27 47 49 29 14 78 47 108 73 70 60 109 88 136
95 35 10 59 -81 59 -229 0 -111 -2 -124 -28 -176 -16 -35 -45 -72 -72 -94 -25
-20 -45 -44 -45 -54 0 -21 36 -71 51 -71 6 0 1 12 -10 26 -12 15 -21 32 -21
39 0 8 22 27 49 44 32 19 59 47 77 77 52 89 68 242 39 379 -19 90 -19 95 5 95
47 0 85 -27 115 -81 26 -47 30 -64 29 -125 -1 -64 -6 -82 -47 -165 -25 -52
-91 -161 -145 -244 -55 -82 -123 -193 -152 -245 -52 -95 -107 -162 -167 -203
-53 -36 -70 -97 -32 -117 50 -27 213 62 331 180 108 108 154 231 128 340 -7
28 -15 50 -18 50 -4 0 -6 -32 -4 -70 3 -61 0 -79 -26 -133 -16 -34 -48 -83
-71 -109 -79 -89 -286 -228 -322 -216 -7 2 18 35 57 75 42 43 84 99 108 144
55 104 95 163 218 322 63 81 126 175 150 225 41 82 43 90 43 176 0 79 -4 98
-27 142 -15 28 -41 63 -57 77 -33 28 -95 42 -140 32 -25 -5 -31 -2 -51 29 -26
44 -94 100 -143 121 -44 18 -103 19 -137 2z m106 -52 c45 -19 81 -47 111 -87
29 -41 29 -44 -7 -63 -17 -9 -68 -51 -113 -94 -98 -92 -125 -109 -139 -90 -5
8 -7 69 -5 135 4 133 19 177 68 201 31 16 42 16 85 -2z"/>
<path d="M5226 2019 c-32 -25 -35 -70 -6 -116 45 -74 110 -45 110 48 0 80 -48
112 -104 68z"/>
<path d="M2690 1885 c0 -24 6 -37 20 -45 16 -9 20 -21 20 -63 0 -29 -4 -57
-10 -63 -6 -6 -6 -20 1 -39 13 -36 -2 -85 -26 -85 -11 0 -15 -10 -15 -35 l0
-35 79 0 c44 0 86 -3 95 -6 12 -4 16 0 16 15 0 26 35 28 69 4 38 -26 174 -25
224 2 l39 20 0 89 c1 69 -2 91 -13 94 -8 3 -24 14 -36 25 -32 29 -168 29 -209
0 -16 -11 -35 -22 -43 -25 -11 -3 -14 -20 -12 -71 3 -80 -2 -90 -34 -75 -20 9
-25 19 -25 48 0 20 5 41 12 48 8 8 8 15 -2 27 -13 16 -10 150 5 188 6 15 -1
17 -74 17 l-81 0 0 -35z"/>
<path d="M3530 1871 c0 -30 4 -40 20 -44 17 -4 20 -14 20 -59 0 -30 -4 -58
-10 -64 -6 -6 -6 -20 2 -41 14 -37 -1 -83 -27 -83 -11 0 -15 -10 -15 -35 l0
-35 80 -1 c44 -1 86 -2 93 -3 7 -1 13 14 15 37 2 28 -1 37 -12 37 -19 0 -31
41 -22 75 6 25 45 43 65 30 18 -10 13 -93 -5 -103 -10 -6 -14 -20 -12 -43 l3
-34 290 -3 290 -3 1 35 c0 26 -4 37 -18 42 -13 4 -18 15 -18 43 0 44 18 64 52
59 19 -2 23 -10 26 -47 2 -32 -1 -47 -12 -53 -10 -6 -16 -23 -16 -43 l0 -35
75 -1 c41 -1 81 -2 88 -3 7 -1 13 14 15 35 3 30 -1 37 -19 42 -20 5 -21 11
-17 72 4 62 2 69 -23 96 -24 26 -34 29 -87 29 -48 0 -61 -4 -67 -17 -6 -17 -7
-17 -16 0 -8 13 -23 17 -74 17 l-65 0 0 -39 c0 -25 5 -41 15 -45 11 -4 15 -20
15 -56 l0 -51 -47 3 -48 3 0 65 c0 36 4 79 8 95 l8 30 -86 -3 -85 -3 0 -35 c0
-28 5 -36 26 -44 23 -9 25 -14 22 -57 l-3 -48 -49 -3 -48 -3 4 72 c4 67 2 74
-21 97 -21 21 -35 26 -81 26 -31 0 -62 -4 -69 -9 -11 -6 -13 8 -9 69 l3 76
-77 0 -78 0 0 -39z"/>
<path d="M3930 1848 l0 -58 70 0 70 0 0 58 0 57 -70 0 -70 0 0 -57z"/>
<path d="M2370 1867 c-6 -10 -27 -25 -46 -33 -34 -14 -35 -16 -29 -55 4 -25 3
-45 -5 -54 -6 -8 -8 -20 -4 -26 4 -7 6 -36 5 -66 -2 -43 1 -53 14 -53 9 0 30
-13 47 -30 29 -29 33 -30 123 -30 70 0 96 4 105 15 7 8 26 19 42 23 28 7 30
11 32 60 l1 52 -62 0 c-57 0 -63 -2 -63 -21 0 -37 -19 -59 -50 -59 -42 0 -60
32 -60 105 0 82 16 110 60 110 31 0 37 -5 54 -38 18 -37 19 -38 70 -35 l51 3
3 73 3 72 -63 0 c-35 0 -97 2 -140 3 -65 2 -78 0 -88 -16z"/>
<path d="M3313 1837 c-35 -9 -43 -15 -43 -34 0 -14 -6 -23 -15 -23 -10 0 -15
-11 -15 -35 0 -24 5 -35 15 -35 21 0 28 -41 17 -96 -10 -45 -9 -49 18 -76 23
-23 37 -28 76 -28 27 0 68 7 91 16 40 16 43 19 43 55 0 39 0 39 -39 39 -31 0
-40 -4 -44 -21 -11 -42 -32 -14 -32 42 l0 54 53 3 52 3 0 40 0 39 -50 0 c-51
0 -54 2 -50 48 2 25 -8 26 -77 9z"/>
<path d="M4725 1831 c3 -10 1 -31 -5 -46 -10 -26 -13 -27 -66 -23 -30 3 -57 1
-61 -4 -3 -5 -19 -18 -36 -28 -27 -17 -30 -24 -32 -75 -1 -49 1 -58 20 -65 51
-20 54 -67 5 -77 -26 -5 -29 -9 -32 -58 -3 -52 -2 -53 30 -65 17 -6 32 -16 32
-21 0 -15 185 -11 217 5 15 8 35 17 43 19 22 6 15 104 -8 112 -10 3 -30 17
-46 31 -29 25 -29 27 -11 40 10 8 26 14 35 14 13 0 16 12 15 61 0 55 -2 63
-23 70 -32 12 -23 33 16 37 31 3 32 5 32 48 l0 44 -66 0 c-59 0 -65 -2 -59
-19z"/>
<path d="M1565 1350 c-11 -18 23 -77 56 -98 19 -12 53 -42 77 -67 38 -40 48
-45 86 -45 29 0 48 6 59 18 26 29 21 45 -10 39 -16 -3 -57 4 -92 16 -56 18
-67 26 -92 68 -31 50 -74 85 -84 69z"/>
<path d="M5508 1327 c-18 -18 -40 -46 -49 -63 -12 -24 -28 -34 -76 -48 -34
-10 -75 -17 -92 -14 -37 5 -40 -10 -8 -40 15 -14 36 -22 58 -22 30 0 46 10
102 65 37 36 71 65 75 65 11 0 42 55 42 74 0 24 -15 19 -52 -17z"/>
<path d="M4853 990 c-43 -18 -56 -89 -18 -103 11 -5 13 0 9 22 -5 23 -2 30 15
36 71 22 133 -122 80 -189 -52 -66 -147 -74 -326 -26 -82 23 -130 30 -176 28
l-62 -3 50 -17 c28 -9 90 -33 138 -53 76 -32 99 -36 171 -37 66 0 94 4 128 21
94 45 145 136 127 223 -16 73 -82 121 -136 98z"/>
<path d="M2739 717 c-76 -40 -101 -119 -47 -148 12 -6 49 -12 84 -12 50 -1 74
5 126 31 60 30 128 86 116 97 -7 8 -86 -19 -179 -61 -101 -45 -137 -52 -145
-29 -5 13 5 29 37 60 71 68 85 85 67 85 -8 0 -35 -10 -59 -23z"/>
<path d="M4320 733 c0 -4 25 -33 56 -64 38 -39 55 -63 51 -73 -9 -24 -27 -20
-140 28 -188 80 -226 84 -147 15 58 -51 138 -81 213 -80 72 0 107 20 107 60 0
47 -47 94 -117 115 -13 4 -23 4 -23 -1z"/>
<path d="M3220 681 c-107 -33 -150 -102 -96 -156 46 -46 199 -42 267 6 40 28
36 39 -8 28 -45 -10 -142 -11 -198 -1 -34 6 -40 11 -43 34 -2 20 4 31 23 44
24 16 36 16 114 6 169 -23 226 -10 126 27 -56 21 -137 26 -185 12z"/>
<path d="M3555 660 c-9 -17 -11 -30 -5 -30 5 0 10 -11 10 -25 0 -16 15 -42 40
-69 22 -24 40 -47 40 -52 0 -5 -16 -23 -36 -39 l-37 -31 -30 30 c-27 28 -29
33 -18 61 6 17 11 53 11 79 0 42 -2 47 -15 36 -8 -7 -15 -20 -15 -29 0 -9 -11
-33 -25 -53 -29 -43 -32 -88 -7 -111 100 -95 111 -98 136 -33 9 24 26 52 36
61 27 24 25 51 -6 105 -18 32 -24 53 -20 74 12 56 -33 76 -59 26z"/>
<path d="M3726 672 c-27 -10 -51 -23 -54 -30 -5 -16 53 -16 169 0 78 10 90 10
113 -6 17 -10 26 -26 26 -41 0 -38 -37 -48 -169 -43 l-114 4 29 -23 c36 -28
121 -47 187 -40 64 6 101 34 105 79 3 29 -2 40 -28 61 -37 31 -117 57 -174 57
-23 -1 -63 -9 -90 -18z"/>
</g>
</svg>
